<svg width="32" height="32" viewBox="0 0 32 32" fill="none" xmlns="http://www.w3.org/2000/svg">
<rect width="32" height="32" fill="black"/>
<path fill-rule="evenodd" clip-rule="evenodd" d="M6.04396 14.1898L14.1898 6.04393C15.1896 5.04419 16.8105 5.04419 17.8102 6.04393L22.8063 11.04H18.8204L17.7718 9.27334C17.6565 9.07908 17.4473 8.95999 17.2214 8.95999H14.7662C14.5395 8.95999 14.3296 9.08002 14.2146 9.2755L12.9911 11.3555C12.8733 11.5558 12.8733 11.8042 12.9911 12.0045L14.2146 14.0845C14.3296 14.28 14.5395 14.4 14.7662 14.4L17.2214 14.4C17.4473 14.4 17.6565 14.2809 17.7718 14.0866L18.8203 12.32L24.0863 12.32L25.9561 14.1898C26.9558 15.1896 26.9558 16.8105 25.9561 17.8102L17.8102 25.9561C16.8105 26.9558 15.1896 26.9558 14.1898 25.9561L9.19377 20.96H13.18L14.2286 22.7267C14.3439 22.9209 14.5531 23.04 14.779 23.04H17.2341C17.4609 23.04 17.6708 22.92 17.7858 22.7245L19.0093 20.6445C19.1271 20.4442 19.1271 20.1958 19.0093 19.9955L17.7858 17.9155C17.6708 17.72 17.4609 17.6 17.2341 17.6H14.779C14.5531 17.6 14.3439 17.7191 14.2286 17.9134L13.18 19.68H7.91378L6.04396 17.8102C5.04422 16.8105 5.04422 15.1896 6.04396 14.1898ZM5.13887 18.7153C3.63926 17.2157 3.63926 14.7843 5.13887 13.2847L13.2847 5.13884C14.7844 3.63923 17.2157 3.63923 18.7153 5.13884L26.8612 13.2847C28.3608 14.7843 28.3608 17.2157 26.8612 18.7153L18.7153 26.8612C17.2157 28.3608 14.7844 28.3608 13.2847 26.8612L5.13887 18.7153ZM19.3346 18.2445L18.3907 16.64H13.9255L12.9719 18.2467C12.8566 18.4409 12.6474 18.56 12.4215 18.56L9.96634 18.56C9.73955 18.56 9.5297 18.44 9.41471 18.2445L8.19118 16.1645C8.07336 15.9642 8.07336 15.7158 8.19118 15.5155L9.41471 13.4355C9.5297 13.24 9.73955 13.12 9.96635 13.12H12.4215C12.6474 13.12 12.8566 13.2391 12.9719 13.4334L14.1154 15.36H18.2025L19.3346 13.4355C19.4496 13.24 19.6594 13.12 19.8862 13.12H22.3414C22.5673 13.12 22.7765 13.2391 22.8918 13.4334L24.1263 15.5134C24.2458 15.7147 24.2458 15.9653 24.1263 16.1667L22.8918 18.2467C22.7765 18.4409 22.5673 18.56 22.3414 18.56L19.8862 18.56C19.6594 18.56 19.4496 18.44 19.3346 18.2445ZM22.8317 15.84L21.977 14.4L20.2522 14.4L19.4052 15.84L20.2522 17.28H21.977L22.8317 15.84ZM12.0572 14.4L12.9118 15.84L12.0572 17.28H10.3324L9.48533 15.84L10.3324 14.4L12.0572 14.4Z" fill="white"/>
</svg>
