<svg width="128" height="128" viewBox="0 0 128 128" fill="none" xmlns="http://www.w3.org/2000/svg">
<rect width="128" height="128" fill="black"/>
<path fill-rule="evenodd" clip-rule="evenodd" d="M24.1759 56.7592L56.7594 24.1757C60.7583 20.1768 67.2419 20.1768 71.2409 24.1757L91.2252 44.16H75.2808L71.0865 37.0934C70.6254 36.3163 69.7887 35.84 68.8851 35.84H59.0644C58.1572 35.84 57.3178 36.3201 56.8578 37.102L51.9637 45.422C51.4924 46.2232 51.4924 47.2168 51.9637 48.018L56.8578 56.338C57.3178 57.1199 58.1572 57.6 59.0644 57.6L68.8851 57.6C69.7887 57.6 70.6254 57.1236 71.0865 56.3466L75.2807 49.28L96.3452 49.28L103.824 56.7592C107.823 60.7582 107.823 67.2418 103.824 71.2408L71.2409 103.824C67.2419 107.823 60.7583 107.823 56.7594 103.824L36.7751 83.84H52.7197L56.9139 90.9066C57.3751 91.6836 58.2118 92.16 59.1154 92.16H68.9361C69.8433 92.16 70.6827 91.6799 71.1427 90.898L76.0368 82.578C76.508 81.7768 76.508 80.7832 76.0368 79.982L71.1427 71.662C70.6827 70.8801 69.8433 70.4 68.9361 70.4H59.1154C58.2118 70.4 57.3751 70.8764 56.9139 71.6534L52.7197 78.72H31.6551L24.1759 71.2408C20.1769 67.2418 20.1769 60.7582 24.1759 56.7592ZM20.5555 74.8611C14.557 68.8627 14.557 59.1373 20.5555 53.1389L53.139 20.5553C59.1374 14.5569 68.8628 14.5569 74.8613 20.5553L107.445 53.1389C113.443 59.1373 113.443 68.8627 107.445 74.8611L74.8613 107.445C68.8628 113.443 59.1374 113.443 53.139 107.445L20.5555 74.8611ZM77.338 72.978L73.5627 66.56H55.7009L51.8865 72.9866C51.4254 73.7636 50.5887 74.24 49.6851 74.24L39.8643 74.24C38.9572 74.24 38.1178 73.7599 37.6578 72.978L32.7637 64.658C32.2924 63.8568 32.2924 62.8632 32.7637 62.062L37.6578 53.742C38.1178 52.9601 38.9572 52.48 39.8644 52.48H49.6851C50.5887 52.48 51.4254 52.9564 51.8865 53.7334L56.4606 61.44H72.8098L77.338 53.742C77.798 52.9601 78.6374 52.48 79.5446 52.48H89.3653C90.2689 52.48 91.1056 52.9564 91.5668 53.7334L96.5049 62.0534C96.9829 62.8589 96.9829 63.8611 96.5049 64.6666L91.5668 72.9866C91.1056 73.7636 90.2689 74.24 89.3653 74.24L79.5446 74.24C78.6374 74.24 77.798 73.7599 77.338 72.978ZM91.3265 63.36L87.9078 57.6L81.0087 57.6L77.6205 63.36L81.0087 69.12H87.9078L91.3265 63.36ZM48.2276 57.6L51.6463 63.36L48.2276 69.12H41.3285L37.9403 63.36L41.3285 57.6L48.2276 57.6Z" fill="white"/>
</svg>
