<svg width="16" height="16" viewBox="0 0 16 16" fill="none" xmlns="http://www.w3.org/2000/svg">
<rect width="16" height="16" fill="white"/>
<path fill-rule="evenodd" clip-rule="evenodd" d="M3.02223 7.09491L7.09516 3.02197C7.59504 2.5221 8.40549 2.5221 8.90536 3.02197L11.4034 5.52001H9.41017L8.88589 4.63667C8.82824 4.53954 8.72366 4.48 8.61071 4.48H7.38311C7.26972 4.48 7.16479 4.54001 7.1073 4.63775L6.49553 5.67775C6.43662 5.77789 6.43662 5.9021 6.49553 6.00224L7.1073 7.04224C7.16479 7.13998 7.26972 7.2 7.38311 7.2L8.61071 7.2C8.72366 7.2 8.82824 7.14045 8.88589 7.04332L9.41016 6.16L12.0434 6.16L12.9783 7.0949C13.4782 7.59478 13.4782 8.40523 12.9783 8.9051L8.90536 12.978C8.40549 13.4779 7.59504 13.4779 7.09517 12.978L4.59713 10.48H6.59008L7.11435 11.3633C7.172 11.4605 7.27659 11.52 7.38953 11.52H8.61713C8.73052 11.52 8.83545 11.46 8.89295 11.3623L9.50471 10.3223C9.56362 10.2221 9.56362 10.0979 9.50471 9.99776L8.89295 8.95776C8.83545 8.86002 8.73052 8.8 8.61713 8.8H7.38953C7.27659 8.8 7.172 8.85955 7.11435 8.95668L6.59008 9.84H3.95713L3.02223 8.9051C2.52236 8.40523 2.52236 7.59478 3.02223 7.09491ZM2.56968 9.35764C1.81987 8.60784 1.81987 7.39216 2.56968 6.64236L6.64262 2.56942C7.39242 1.81961 8.6081 1.81961 9.3579 2.56942L13.4308 6.64236C14.1806 7.39216 14.1806 8.60784 13.4308 9.35764L9.3579 13.4306C8.6081 14.1804 7.39242 14.1804 6.64262 13.4306L2.56968 9.35764ZM9.66735 9.12225L9.19544 8.32H6.96278L6.48599 9.12333C6.42834 9.22046 6.32375 9.28001 6.21081 9.28001L4.98321 9.28001C4.86982 9.28001 4.76489 9.21999 4.70739 9.12225L4.09563 8.08225C4.03672 7.98211 4.03672 7.8579 4.09563 7.75776L4.70739 6.71776C4.76489 6.62002 4.86982 6.56001 4.98321 6.56001H6.21081C6.32375 6.56001 6.42834 6.61955 6.48599 6.71668L7.05774 7.68H9.10133L9.66735 6.71776C9.72485 6.62002 9.82978 6.56001 9.94317 6.56001H11.1708C11.2837 6.56001 11.3883 6.61955 11.4459 6.71668L12.0632 7.75668C12.123 7.85736 12.123 7.98265 12.0632 8.08333L11.4459 9.12333C11.3883 9.22046 11.2837 9.28001 11.1708 9.28001L9.94317 9.28001C9.82978 9.28001 9.72485 9.21999 9.66735 9.12225ZM11.4159 7.92001L10.9886 7.20001L10.1262 7.2L9.70267 7.92001L10.1262 8.64001H10.9886L11.4159 7.92001ZM6.02861 7.20001L6.45595 7.92001L6.02861 8.64001H5.16623L4.7427 7.92001L5.16623 7.2L6.02861 7.20001Z" fill="black"/>
</svg>
