<svg width="100" height="100" viewBox="0 0 100 100" fill="none" xmlns="http://www.w3.org/2000/svg">
<path fill-rule="evenodd" clip-rule="evenodd" d="M18.8871 44.3431L44.3429 18.8873C47.4671 15.7631 52.5324 15.7631 55.6566 18.8873L71.2693 34.5H58.8129L55.5362 28.9792C55.1759 28.3722 54.5222 28 53.8163 28L46.1439 28C45.4351 28 44.7793 28.3751 44.42 28.986L40.5965 35.486C40.2283 36.1119 40.2283 36.8881 40.5965 37.514L44.42 44.014C44.7793 44.6249 45.4351 45 46.1438 45H53.8163C54.5222 45 55.1759 44.6278 55.5362 44.0208L58.8129 38.5H75.2693L81.1125 44.3431C84.2367 47.4673 84.2367 52.5327 81.1125 55.6569L55.6566 81.1127C52.5324 84.2369 47.4671 84.2369 44.3429 81.1127L28.7302 65.5H41.1869L44.4636 71.0208C44.8239 71.6279 45.4776 72 46.1835 72H53.8559C54.5647 72 55.2205 71.6249 55.5798 71.014L59.4033 64.514C59.7715 63.8881 59.7715 63.1119 59.4033 62.486L55.5798 55.986C55.2205 55.3751 54.5647 55 53.8559 55H46.1835C45.4776 55 44.8239 55.3722 44.4636 55.9792L41.1869 61.5H24.7302L18.8871 55.6569C15.7629 52.5327 15.7629 47.4673 18.8871 44.3431ZM16.0587 58.4853C11.3724 53.799 11.3724 46.201 16.0587 41.5147L41.5145 16.0589C46.2008 11.3726 53.7988 11.3726 58.4851 16.0589L83.9409 41.5147C88.6272 46.201 88.6272 53.799 83.9409 58.4853L58.4851 83.9411C53.7988 88.6274 46.2008 88.6274 41.5145 83.9411L16.0587 58.4853ZM60.42 57.014L57.4705 52H43.5161L40.5362 57.0208C40.1759 57.6278 39.5222 58 38.8163 58H31.1438C30.4351 58 29.7793 57.6249 29.42 57.014L25.5965 50.514C25.2283 49.8881 25.2283 49.1119 25.5965 48.486L29.42 41.986C29.7793 41.3751 30.4351 41 31.1438 41H38.8163C39.5222 41 40.1759 41.3722 40.5362 41.9792L44.1097 48H56.8823L60.42 41.986C60.7793 41.3751 61.4351 41 62.1439 41H69.8163C70.5222 41 71.1759 41.3722 71.5362 41.9792L75.3941 48.4792C75.7676 49.1085 75.7676 49.8915 75.3941 50.5208L71.5362 57.0208C71.1759 57.6278 70.5222 58 69.8163 58H62.1438C61.4351 58 60.7793 57.6249 60.42 57.014ZM71.3485 49.5L68.6776 45L63.2877 45L60.6407 49.5L63.2877 54H68.6776L71.3485 49.5ZM37.6776 45L40.3485 49.5L37.6776 54H32.2877L29.6407 49.5L32.2877 45L37.6776 45Z" fill="white"/>
</svg>
